<svg width="168" height="64" viewBox="0 0 168 64" fill="none" xmlns="http://www.w3.org/2000/svg">
<g clip-path="url(#clip0_204_1558)">
<path fill-rule="evenodd" clip-rule="evenodd" d="M5 24.766V30.383H9.42196V24.766H5ZM9.42196 24.766H19.4564V20.5106H9.42196V24.766ZM162.83 27.4894H157.217L151.775 33.4468V20H147.523V43.4894H151.775V39.234L153.476 37.3617L157.728 43.4894H163L156.537 34.2979L162.83 27.4894ZM9.42196 43.4894V34.4681H18.2659V30.383H9.42196V34.4681H5V43.3191H9.42196V43.4894ZM30.8515 27.4894C30.5113 27.4894 30.1712 27.4894 29.831 27.4894C28.4704 27.4894 26.2594 27.8298 25.239 30.0426V27.4894H21.1572V43.4894H25.409V36.1702C25.409 32.766 27.2799 31.7447 29.4908 31.7447C29.831 31.7447 30.3412 31.7447 30.8515 31.9149V27.4894ZM37.8245 43.8298C34.423 43.8298 32.3821 41.4468 32.3821 39.0638C32.3821 36.1702 34.423 34.6383 37.1442 34.2979L41.056 33.7872C41.9064 33.617 42.2465 33.2766 42.2465 32.5957C42.2465 31.4043 41.3961 30.5532 39.5253 30.5532C37.6545 30.5532 36.634 31.7447 36.4639 33.1064L32.7223 32.2553C33.0624 29.7021 35.2734 26.9787 39.5253 26.9787C44.6276 26.9787 46.4984 29.8723 46.4984 33.1064V40.9362C46.4984 41.7872 46.6685 42.9787 46.6685 43.4894H42.7567C42.5867 42.9787 42.4166 42.1277 42.4166 41.617C41.7363 42.8085 40.2056 43.8298 37.8245 43.8298ZM36.634 38.8936C36.634 39.9149 37.3143 40.766 38.6749 40.766C40.5457 40.766 42.2465 39.9149 42.2465 37.0213V36.3404L38.6749 36.8511C37.4844 37.0213 36.634 37.7021 36.634 38.8936ZM53.3014 43.4894V34.1277C53.3014 32.4255 54.3218 31.0638 56.3628 31.0638C58.2336 31.0638 59.254 32.4255 59.254 34.1277V43.6596H63.5059V34.1277C63.5059 32.4255 64.5264 31.0638 66.3972 31.0638C68.4381 31.0638 69.2885 32.4255 69.2885 34.1277V43.6596H73.5404V33.1064C73.5404 28.8511 70.6491 26.9787 67.7578 26.9787C65.7169 26.9787 64.0161 27.6596 62.6555 29.7021C61.8052 28 60.1044 26.9787 57.8934 26.9787C56.1927 26.9787 54.1518 27.8298 53.3014 29.3617V27.4894H49.2196V43.4894H53.3014ZM99.0517 37.7021L102.453 27.4894H107.045L110.447 37.7021L113.338 27.4894H117.59L112.658 43.4894H108.406L104.664 32.5957L100.923 43.4894H96.5005L91.3983 27.4894H95.9903L99.0517 37.7021ZM125.924 40.0851C123.883 40.0851 121.842 38.5532 121.842 35.4894C121.842 32.4255 123.713 30.8936 125.924 30.8936C127.964 30.8936 130.005 32.4255 130.005 35.4894C130.005 38.5532 127.964 40.0851 125.924 40.0851ZM125.924 26.9787C121.161 26.9787 117.59 30.5532 117.59 35.4894C117.59 40.4255 121.161 44 125.924 44C130.686 44 134.257 40.4255 134.257 35.4894C134.257 30.5532 130.686 26.9787 125.924 26.9787ZM144.632 27.3191C144.972 27.3191 145.312 27.3191 145.652 27.3191V31.7447C145.142 31.5745 144.802 31.5745 144.292 31.5745C142.081 31.5745 140.21 32.5957 140.21 36V43.3191H135.958V27.4894H140.21V29.8723C141.06 27.8298 143.271 27.3191 144.632 27.3191Z" fill="#18181B"/>
<path d="M79.6632 33.6171C79.8332 32.0851 81.0238 30.5532 83.2348 30.5532C85.6158 30.5532 86.8063 32.0851 86.8063 33.6171H79.6632ZM87.1465 37.8724C86.6363 39.2341 85.4457 40.2554 83.5749 40.2554C81.3639 40.2554 79.6632 38.7234 79.4931 36.6809H90.8881C90.8881 36.6809 90.8881 36 90.8881 35.3192C90.8881 30.2128 87.9969 26.9788 83.0647 26.9788C78.9829 26.9788 75.2412 30.2128 75.2412 35.3192C75.2412 40.766 79.1529 43.8298 83.4048 43.8298C87.3166 43.8298 89.8677 41.4468 90.7181 38.7234L87.1465 37.8724Z" fill="#18181B"/>
</g>
<defs>
<clipPath id="clip0_204_1558">
<rect width="158" height="24" fill="white" transform="translate(5 20)"/>
</clipPath>
</defs>
</svg>
