<svg width="80" height="80" viewBox="0 0 80 80" fill="none" xmlns="http://www.w3.org/2000/svg">
<path d="M64 40C64 53.2548 53.2548 64 40 64C26.7452 64 16 53.2548 16 40C16 26.7452 26.7452 16 40 16C53.2548 16 64 26.7452 64 40Z" fill="url(#paint0_linear_68_621)"/>
<path d="M56 40C56 48.8366 48.8366 56 40 56C31.1634 56 24 48.8366 24 40C24 31.1634 31.1634 24 40 24C48.8366 24 56 31.1634 56 40Z" fill="white"/>
<path d="M39.9998 64.0037L59.9998 64.0037L59.9998 59.0037C59.9998 57.3556 61.8814 56.4148 63.1998 57.4037L73.8665 65.4037C74.9332 66.2037 74.9332 67.8037 73.8665 68.6037L63.1998 76.6037C61.8814 77.5925 59.9998 76.6518 59.9998 75.0037L59.9998 70.0037L39.9998 70.0037L39.9998 64.0037Z" fill="url(#paint1_linear_68_621)"/>
<path d="M40.0002 15.9997H20.0002V20.9997C20.0002 22.6478 18.1186 23.5886 16.8002 22.5997L6.1335 14.5997C5.06683 13.7997 5.06683 12.1997 6.1335 11.3997L16.8002 3.39972C18.1186 2.41087 20.0002 3.35163 20.0002 4.99972V9.99972H40.0002V15.9997Z" fill="url(#paint2_linear_68_621)"/>
<path fill-rule="evenodd" clip-rule="evenodd" d="M39 30L39 32H33C32.4477 32 32 32.4477 32 33C32 33.5523 32.4477 34 33 34H35V46H33C32.4477 46 32 46.4477 32 47C32 47.5523 32.4477 48 33 48H39L39 50C39 50.5523 39.4477 51 40 51C40.5523 51 41 50.5523 41 50L41 48H43C45.7614 48 48 45.7614 48 43C48 41.2759 47.1274 39.7557 45.7998 38.8568C46.5405 38.1308 47 37.1191 47 36C47 33.7909 45.2091 32 43 32H41L41 30C41 29.4477 40.5523 29 40 29C39.4477 29 39 29.4477 39 30ZM43 34H37V38H43C44.1046 38 45 37.1046 45 36C45 34.8954 44.1046 34 43 34ZM46 43C46 44.6569 44.6569 46 43 46H37V40H43C44.6569 40 46 41.3431 46 43Z" fill="#142E33"/>
<path fill-rule="evenodd" clip-rule="evenodd" d="M19.0002 5.00008C19.0002 4.17603 18.0594 3.70565 17.4002 4.20008L6.7335 12.2001C6.20016 12.6001 6.20016 13.4001 6.7335 13.8001L17.4002 21.8001C18.0594 22.2945 19.0002 21.8241 19.0002 21.0001V16.0001C19.0002 15.4478 19.4479 15.0001 20.0002 15.0001H39.9376L40 15C53.8071 15 65 26.1929 65 40C65 50.3233 58.7429 59.1852 49.8143 63H59V59C59 56.5279 61.8223 55.1167 63.8 56.6L74.4667 64.6C76.0667 65.8 76.0667 68.2 74.4667 69.4L63.8 77.4C61.8223 78.8833 59 77.4721 59 75V71H40C22.8792 71 9 57.1208 9 40C9 39.4477 9.44772 39 10 39C10.5523 39 11 39.4477 11 40C11 56.0163 23.9837 69 40 69H60C60.5523 69 61 69.4477 61 70V75C61 75.824 61.9408 76.2944 62.6 75.8L73.2667 67.8C73.8 67.4 73.8 66.6 73.2667 66.2L62.6 58.2C61.9408 57.7056 61 58.176 61 59V64C61 64.5523 60.5523 65 60 65H40C26.1929 65 15 53.8071 15 40C15 29.6768 21.257 20.8149 30.1855 17.0001H21.0002V21.0001C21.0002 23.4722 18.1779 24.8834 16.2002 23.4001L5.5335 15.4001C3.9335 14.2001 3.9335 11.8001 5.5335 10.6001L16.2002 2.60008C18.1779 1.11679 21.0002 2.52794 21.0002 5.00008V9.00008H40.0002C57.121 9.00008 71.0002 22.8792 71.0002 40.0001C71.0002 40.5524 70.5524 41.0001 70.0002 41.0001C69.4479 41.0001 69.0002 40.5524 69.0002 40.0001C69.0002 23.9838 56.0164 11.0001 40.0002 11.0001H20.0002C19.4479 11.0001 19.0002 10.5524 19.0002 10.0001V5.00008ZM39 17.0213C35.5384 17.1694 32.275 18.0826 29.3746 19.5961L32.3789 24.7998C34.3904 23.7894 36.63 23.1664 39 23.0289V17.0213ZM20.5978 27.6434C22.4042 24.8129 24.8129 22.4041 27.6434 20.5977L30.6478 25.8014C28.723 27.0718 27.0718 28.723 25.8014 30.6477L20.5978 27.6434ZM27.0418 32.4397C28.346 30.2091 30.2097 28.3455 32.4403 27.0414C32.4604 27.0316 32.4803 27.0209 32.5 27.0096C32.5202 26.9979 32.5398 26.9857 32.5589 26.9728C34.7518 25.7175 37.2921 25 40 25C42.7079 25 45.2483 25.7176 47.4413 26.9729C47.4603 26.9857 47.4799 26.9979 47.5 27.0096C47.5196 27.0209 47.5394 27.0315 47.5595 27.0413C49.7903 28.3455 51.654 30.2092 52.9583 32.4399C52.9682 32.4601 52.9789 32.4802 52.9904 32.5C52.9955 32.5088 53.0007 32.5175 53.006 32.5261C53.0129 32.5374 53.0201 32.5484 53.0274 32.5593C54.2826 34.7522 55 37.2923 55 40C55 42.7077 54.2826 45.2479 53.0274 47.4407C53.0145 47.4599 53.0021 47.4797 52.9904 47.5C52.9789 47.5198 52.9682 47.5399 52.9583 47.5601C51.6543 49.7904 49.791 51.6538 47.5608 52.9579C47.5524 52.962 47.5441 52.9662 47.5359 52.9706C47.5238 52.9769 47.5119 52.9835 47.5 52.9903C47.4794 53.0022 47.4595 53.0147 47.4401 53.0277C45.2474 54.2827 42.7075 55 40 55C37.2926 55 34.7527 54.2827 32.5601 53.0278C32.5406 53.0147 32.5206 53.0022 32.5 52.9903C32.4799 52.9787 32.4596 52.9679 32.439 52.9578C30.209 51.6538 28.3458 49.7905 27.0418 47.5603C27.0318 47.54 27.0211 47.5199 27.0096 47.5C26.9979 47.4796 26.9855 47.4598 26.9725 47.4405C25.7174 45.2477 25 42.7076 25 40C25 37.2924 25.7174 34.7523 26.9725 32.5595C26.9855 32.5402 26.9979 32.5204 27.0096 32.5C27.0211 32.4801 27.0318 32.46 27.0418 32.4397ZM17.0213 39C17.1694 35.5384 18.0826 32.275 19.5962 29.3745L24.7999 32.3789C23.7894 34.3903 23.1664 36.63 23.0289 39H17.0213ZM47.6211 55.2001C45.6097 56.2106 43.37 56.8336 41 56.9711V62.9787C44.4616 62.8306 47.7251 61.9174 50.6255 60.4038L47.6211 55.2001ZM52.3566 59.4022C55.1871 57.5958 57.5959 55.1871 59.4022 52.3566L54.1986 49.3523C52.9282 51.277 51.277 52.9282 49.3523 54.1986L52.3566 59.4022ZM23.0289 41C23.1664 43.37 23.7894 45.6097 24.7999 47.6211L19.5962 50.6255C18.0826 47.725 17.1694 44.4616 17.0213 41H23.0289ZM25.8014 49.3523L20.5978 52.3566C22.4041 55.1871 24.8129 57.5958 27.6434 59.4022L30.6477 54.1986C28.723 52.9282 27.0718 51.277 25.8014 49.3523ZM55.2001 32.3789C56.2106 34.3903 56.8336 36.63 56.9711 39H62.9787C62.8306 35.5384 61.9174 32.275 60.4038 29.3745L55.2001 32.3789ZM59.4022 27.6434C57.5958 24.8129 55.1871 22.4041 52.3566 20.5977L49.3522 25.8014C51.277 27.0718 52.9282 28.723 54.1986 30.6477L59.4022 27.6434ZM39 62.9787C35.5384 62.8306 32.2749 61.9174 29.3745 60.4038L32.3789 55.2001C34.3903 56.2106 36.63 56.8336 39 56.9711V62.9787ZM60.4038 50.6255C61.9174 47.725 62.8306 44.4616 62.9787 41H56.9711C56.8336 43.37 56.2106 45.6097 55.2002 47.6211L60.4038 50.6255ZM50.6254 19.5961C47.725 18.0826 44.4616 17.1694 41 17.0213V23.0289C43.37 23.1664 45.6096 23.7894 47.6211 24.7998L50.6254 19.5961Z" fill="#142E33"/>
<defs>
<linearGradient id="paint0_linear_68_621" x1="40" y1="16" x2="40" y2="64" gradientUnits="userSpaceOnUse">
<stop stop-color="#29B5BC"/>
<stop offset="1" stop-color="#29B5BC" stop-opacity="0"/>
</linearGradient>
<linearGradient id="paint1_linear_68_621" x1="104" y1="67.0037" x2="39.9998" y2="67.0037" gradientUnits="userSpaceOnUse">
<stop stop-color="#29B5BC"/>
<stop offset="1" stop-color="#29B5BC" stop-opacity="0"/>
</linearGradient>
<linearGradient id="paint2_linear_68_621" x1="-23.9998" y1="12.9998" x2="40.0002" y2="12.9998" gradientUnits="userSpaceOnUse">
<stop stop-color="#29B5BC"/>
<stop offset="1" stop-color="#29B5BC" stop-opacity="0"/>
</linearGradient>
</defs>
</svg>
