<svg width="80" height="80" viewBox="0 0 80 80" fill="none" xmlns="http://www.w3.org/2000/svg">
<path fill-rule="evenodd" clip-rule="evenodd" d="M16.5757 21.5759L13.1211 18.1214C11.9496 16.9498 10.0501 16.9498 8.87849 18.1214L6.05007 20.9498C4.87849 22.1214 4.87849 24.0209 6.05007 25.1924L9.51655 28.6589C11.458 25.9229 13.8465 23.5263 16.5757 21.5759Z" fill="url(#paint0_linear_68_619)"/>
<path fill-rule="evenodd" clip-rule="evenodd" d="M51.3828 21.5463C54.1154 23.4922 56.5079 25.8848 58.4539 28.6174L61.8788 25.1924C63.0504 24.0209 63.0504 22.1214 61.8788 20.9498L59.0504 18.1214C57.8788 16.9498 55.9793 16.9498 54.8078 18.1214L51.3828 21.5463Z" fill="url(#paint1_linear_68_619)"/>
<path fill-rule="evenodd" clip-rule="evenodd" d="M34 76C50.5685 76 64 62.5685 64 46C64 29.4315 50.5685 16 34 16C17.4315 16 4 29.4315 4 46C4 62.5685 17.4315 76 34 76ZM34 68C46.1503 68 56 58.1503 56 46C56 33.8497 46.1503 24 34 24C21.8497 24 12 33.8497 12 46C12 58.1503 21.8497 68 34 68Z" fill="url(#paint2_linear_68_619)"/>
<path d="M38 46C38 48.2091 36.2091 50 34 50C31.7909 50 30 48.2091 30 46C30 43.7909 31.7909 42 34 42C36.2091 42 38 43.7909 38 46Z" fill="url(#paint3_linear_68_619)"/>
<path d="M76 60C76 68.8366 68.8366 76 60 76C51.1634 76 44 68.8366 44 60C44 51.1634 51.1634 44 60 44C68.8366 44 76 51.1634 76 60Z" fill="white"/>
<path fill-rule="evenodd" clip-rule="evenodd" d="M35 50.9C37.2822 50.4367 39 48.419 39 46C39 43.2386 36.7614 41 34 41C31.2386 41 29 43.2386 29 46C29 48.419 30.7178 50.4367 33 50.9V58C33 58.5523 33.4477 59 34 59C34.5523 59 35 58.5523 35 58V50.9ZM34 43C32.3431 43 31 44.3431 31 46C31 47.6569 32.3431 49 34 49C35.6569 49 37 47.6569 37 46C37 44.3431 35.6569 43 34 43Z" fill="#142E33"/>
<path fill-rule="evenodd" clip-rule="evenodd" d="M59 50L59 52H53C52.4477 52 52 52.4477 52 53C52 53.5523 52.4477 54 53 54H55V66H53C52.4477 66 52 66.4477 52 67C52 67.5523 52.4477 68 53 68H59L59 70C59 70.5523 59.4477 71 60 71C60.5523 71 61 70.5523 61 70L61 68H63C65.7614 68 68 65.7614 68 63C68 61.2759 67.1274 59.7557 65.7998 58.8568C66.5405 58.1308 67 57.1191 67 56C67 53.7909 65.2091 52 63 52H61L61 50C61 49.4477 60.5523 49 60 49C59.4477 49 59 49.4477 59 50ZM65 56C65 54.8954 64.1046 54 63 54H57V58H63C64.1046 58 65 57.1046 65 56ZM66 63C66 64.6569 64.6569 66 63 66H57V60H63C64.6569 60 66 61.3431 66 63Z" fill="#142E33"/>
<path fill-rule="evenodd" clip-rule="evenodd" d="M41 10C41 12.1345 40.0446 14.0459 38.5382 15.3298C43.1982 16.0134 47.5213 17.7338 51.2656 20.2493L54.1007 17.4142C55.6628 15.8522 58.1955 15.8522 59.7576 17.4142L62.586 20.2427C64.1481 21.8048 64.1481 24.3374 62.586 25.8995L59.7509 28.7347C62.6685 33.0776 64.5165 38.1992 64.9176 43.7221C71.9087 45.8313 77 52.3211 77 60C77 69.3888 69.3888 77 60 77C55.8634 77 52.0719 75.5226 49.1244 73.0666C44.6506 75.5718 39.4921 77 34 77C16.8792 77 3 63.1208 3 46C3 39.627 4.92309 33.7032 8.22062 28.7772L5.34296 25.8995C3.78086 24.3374 3.78086 21.8048 5.34296 20.2427L8.17139 17.4142C9.73348 15.8522 12.2661 15.8522 13.8282 17.4142L16.6919 20.2779C20.446 17.7469 24.7841 16.016 29.4618 15.3298C27.9554 14.0459 27 12.1345 27 10C27 6.13401 30.134 3 34 3C37.866 3 41 6.13401 41 10ZM34 17C49.0858 17 61.4812 28.519 62.8705 43.2413C61.9374 43.0826 60.9783 43 60 43C58.921 43 57.8655 43.1005 56.8423 43.2927C55.5025 31.866 45.7866 23 34 23C21.2975 23 11 33.2975 11 46C11 58.7025 21.2975 69 34 69C37.7082 69 41.2115 68.1224 44.3134 66.5637C45.102 68.446 46.2195 70.1564 47.594 71.623C43.5394 73.7786 38.9123 75 34 75C17.9837 75 5 62.0163 5 46C5 29.9837 17.9837 17 34 17ZM52.6697 36.3757C53.8375 38.6365 54.6067 41.1367 54.8844 43.7832C47.9954 45.9542 43 52.3938 43 60C43 61.6153 43.2253 63.178 43.6462 64.6584C41.0361 66.0105 38.1063 66.831 35 66.9766V65C35 64.4477 34.5523 64 34 64C33.4477 64 33 64.4477 33 65V66.9766C29.9024 66.8314 26.9802 66.015 24.3757 64.6697L25.366 62.9545C25.6422 62.4762 25.4783 61.8646 25 61.5884C24.5217 61.3123 23.9101 61.4762 23.634 61.9545L22.6446 63.6681C20.1163 62.0398 17.9602 59.8837 16.3319 57.3554L18.0455 56.366C18.5238 56.0899 18.6877 55.4783 18.4116 55C18.1354 54.5217 17.5238 54.3578 17.0455 54.634L15.3303 55.6243C13.985 53.0198 13.1686 50.0976 13.0234 47H15C15.5523 47 16 46.5523 16 46C16 45.4477 15.5523 45 15 45H13.0234C13.1686 41.9024 13.985 38.9802 15.3303 36.3757L17.0455 37.366C17.5238 37.6422 18.1354 37.4783 18.4116 37C18.6877 36.5217 18.5238 35.9101 18.0455 35.634L16.3319 34.6446C17.9602 32.1163 20.1163 29.9602 22.6446 28.3319L23.634 30.0455C23.9101 30.5238 24.5217 30.6877 25 30.4116C25.4783 30.1354 25.6422 29.5238 25.366 29.0455L24.3757 27.3303C26.9802 25.985 29.9024 25.1686 33 25.0234V27C33 27.5523 33.4477 28 34 28C34.5523 28 35 27.5523 35 27V25.0234C38.0976 25.1686 41.0198 25.985 43.6243 27.3303L42.634 29.0455C42.3578 29.5238 42.5217 30.1354 43 30.4116C43.4783 30.6877 44.0899 30.5238 44.366 30.0455L45.3554 28.3319C47.8837 29.9602 50.0398 32.1163 51.6681 34.6446L49.9545 35.634C49.4762 35.9101 49.3123 36.5217 49.5884 37C49.8646 37.4783 50.4762 37.6422 50.9545 37.366L52.6697 36.3757ZM33 14.9C30.7178 14.4367 29 12.419 29 10C29 7.23858 31.2386 5 34 5C36.7614 5 39 7.23858 39 10C39 12.419 37.2822 14.4367 35 14.9V10C35 9.44772 34.5523 9 34 9C33.4477 9 33 9.44772 33 10V14.9ZM9.5856 18.8285C10.3666 18.0474 11.633 18.0474 12.414 18.8285L15.05 21.4645C12.9327 23.1021 11.0332 25.0077 9.40236 27.1305L6.75717 24.4853C5.97612 23.7043 5.97612 22.4379 6.75717 21.6569L9.5856 18.8285ZM55.5149 18.8285C56.296 18.0474 57.5623 18.0474 58.3434 18.8285L61.1718 21.6569C61.9528 22.4379 61.9528 23.7043 61.1718 24.4853L58.5668 27.0904C56.9325 24.9703 55.03 23.0677 52.9099 21.4335L55.5149 18.8285ZM60 45C51.7157 45 45 51.7157 45 60C45 68.2843 51.7157 75 60 75C68.2843 75 75 68.2843 75 60C75 51.7157 68.2843 45 60 45Z" fill="#142E33"/>
<defs>
<linearGradient id="paint0_linear_68_619" x1="10.8735" y1="17.2427" x2="10.8735" y2="28.6589" gradientUnits="userSpaceOnUse">
<stop stop-color="#29B5BC"/>
<stop offset="1" stop-color="#29B5BC" stop-opacity="0"/>
</linearGradient>
<linearGradient id="paint1_linear_68_619" x1="57.0702" y1="17.2427" x2="57.0702" y2="28.6174" gradientUnits="userSpaceOnUse">
<stop stop-color="#29B5BC"/>
<stop offset="1" stop-color="#29B5BC" stop-opacity="0"/>
</linearGradient>
<linearGradient id="paint2_linear_68_619" x1="34" y1="16" x2="34" y2="76" gradientUnits="userSpaceOnUse">
<stop stop-color="#29B5BC"/>
<stop offset="1" stop-color="#29B5BC" stop-opacity="0"/>
</linearGradient>
<linearGradient id="paint3_linear_68_619" x1="34" y1="42" x2="34" y2="50" gradientUnits="userSpaceOnUse">
<stop stop-color="#29B5BC"/>
<stop offset="1" stop-color="#29B5BC" stop-opacity="0"/>
</linearGradient>
</defs>
</svg>
