<svg width="80" height="80" viewBox="0 0 80 80" fill="none" xmlns="http://www.w3.org/2000/svg">
<path fill-rule="evenodd" clip-rule="evenodd" d="M64 15.52L34 4L4 15.52V44.32C4 58.72 15.4286 70.24 34 76C52.5714 70.24 64 57.28 64 44.32V15.52ZM57 20.96L34 12L11 20.96V43.36C11 54.56 19.7619 63.52 34 68C48.2381 63.52 57 53.44 57 43.36V20.96Z" fill="url(#paint0_linear_68_620)"/>
<path d="M76 60C76 68.8366 68.8366 76 60 76C51.1634 76 44 68.8366 44 60C44 51.1634 51.1634 44 60 44C68.8366 44 76 51.1634 76 60Z" fill="white"/>
<path fill-rule="evenodd" clip-rule="evenodd" d="M59 50L59 52H53C52.4477 52 52 52.4477 52 53C52 53.5523 52.4477 54 53 54H55V66H53C52.4477 66 52 66.4477 52 67C52 67.5523 52.4477 68 53 68H59L59 70C59 70.5523 59.4477 71 60 71C60.5523 71 61 70.5523 61 70L61 68H63C65.7614 68 68 65.7614 68 63C68 61.2759 67.1274 59.7557 65.7998 58.8568C66.5405 58.1308 67 57.1191 67 56C67 53.7909 65.2091 52 63 52H61L61 50C61 49.4477 60.5523 49 60 49C59.4477 49 59 49.4477 59 50ZM65 56C65 54.8954 64.1046 54 63 54H57V58H63C64.1046 58 65 57.1046 65 56ZM66 63C66 64.6569 64.6569 66 63 66H57V60H63C64.6569 60 66 61.3431 66 63Z" fill="#142E33"/>
<path fill-rule="evenodd" clip-rule="evenodd" d="M33.6415 3.06646C33.8723 2.97785 34.1277 2.97785 34.3585 3.06646L64.3585 14.5865C64.7449 14.7349 65 15.106 65 15.52V43.7472C71.9487 45.8823 77 52.3513 77 60C77 69.3888 69.3888 77 60 77C54.8984 77 50.3217 74.7528 47.2057 71.1943C43.4021 73.5152 39.0715 75.474 34.2962 76.9551C34.1033 77.015 33.8967 77.015 33.7038 76.9551C14.936 71.1342 3 59.3532 3 44.32V15.52C3 15.106 3.25507 14.7349 3.64152 14.5865L33.6415 3.06646ZM63 16.2072V43.2639C62.0262 43.0905 61.0237 43 60 43C59.3234 43 58.656 43.0395 58 43.1164V20.96C58 20.5478 57.7471 20.1778 57.363 20.0282L34.3839 11.0764C34.2683 11.0282 34.1417 11.0012 34.009 11L34 11L33.9971 11C33.8619 11.0004 33.7329 11.0276 33.6154 11.0766L10.637 20.0282C10.2529 20.1778 10 20.5478 10 20.96V43.36C10 55.1782 19.2478 64.4 33.6774 68.9468C33.7786 68.9813 33.8871 69 34 69C34.1129 69 34.2213 68.9813 34.3225 68.9468C37.7567 67.8645 40.8952 66.4551 43.6848 64.7922C44.1942 66.5292 44.9734 68.1508 45.974 69.6086C42.4565 71.7318 38.448 73.5483 33.9998 74.9523C15.8038 69.2244 5 58.0127 5 44.32V16.2072L34 5.07119L63 16.2072ZM56 43.36C56 43.3978 55.9999 43.4356 55.9996 43.4734C48.5411 45.2723 43 51.9891 43 60C43 60.9329 43.0752 61.8483 43.2197 62.7405C40.7855 64.2486 38.0361 65.5614 35 66.616L35 13.4628L56 21.6436V43.36ZM12 21.6436V43.36C12 53.6048 19.7573 62.0845 33 66.6192L33 13.4628L12 21.6436ZM60 45C51.7157 45 45 51.7157 45 60C45 68.2843 51.7157 75 60 75C68.2843 75 75 68.2843 75 60C75 51.7157 68.2843 45 60 45Z" fill="#142E33"/>
<defs>
<linearGradient id="paint0_linear_68_620" x1="34" y1="4" x2="34" y2="76" gradientUnits="userSpaceOnUse">
<stop stop-color="#29B5BC"/>
<stop offset="1" stop-color="#29B5BC" stop-opacity="0"/>
</linearGradient>
</defs>
</svg>
