<svg width="168" height="64" viewBox="0 0 168 64" fill="none" xmlns="http://www.w3.org/2000/svg">
<g clip-path="url(#clip0_204_1564)">
<path d="M42.2188 37.8211H40.0837L38.7287 35.1794H30.8006L29.4433 37.8211H27.3105L33.538 26.008H35.993L42.2188 37.8211ZM37.7819 33.4154L34.7831 27.6914L31.7468 33.4154H37.7819ZM66.1744 37.8211H63.7473L54.7603 28.1331V37.8211H52.8103V26.008H55.2317L64.2244 35.7V26.0086H66.1744V37.8211ZM90.0009 27.7686V26.0086H76.7995V27.7686H82.4258V29.5423H78.7495V31.3046H82.4258V37.8211H84.3763V31.3046H88.0503V29.5423H84.3763V27.7686H90.0009ZM112.949 27.7703H102.576V31.0286H109.469V32.7926H102.576V36.0629H112.959V37.8229H100.625V26.008H112.949V27.7703ZM162 37.8211H159.863L158.508 35.1794H150.578L149.223 37.8211H147.088L153.316 26.008H155.77L162 37.8211ZM157.564 33.4154L154.563 27.6914L151.526 33.4154H157.564ZM15.6014 26H6V37.8206H7.95V33.3091H15.602C17.6129 33.3091 19.2429 31.6651 19.2429 29.6463C19.2429 27.6286 17.6129 26 15.6014 26ZM15.6014 31.5429H7.95V27.7657H15.602C15.8482 27.7653 16.0921 27.8137 16.3197 27.9081C16.5473 28.0024 16.7541 28.1409 16.9283 28.3156C17.1025 28.4903 17.2407 28.6977 17.3349 28.926C17.4291 29.1544 17.4775 29.3991 17.4774 29.6463C17.4791 30.6874 16.6387 31.5429 15.6014 31.5429ZM136.939 37.8206L133.822 33.2434C135.53 32.9423 136.834 31.448 136.834 29.6463C136.834 27.628 135.204 26 133.193 26H123.592V37.8206H125.542V33.3091H131.487L134.67 37.8206H136.939ZM125.54 27.7663H133.191C133.437 27.766 133.681 27.8144 133.909 27.9087C134.136 28.0031 134.343 28.1415 134.517 28.3161C134.691 28.4907 134.83 28.6981 134.924 28.9263C135.018 29.1546 135.067 29.3992 135.067 29.6463C135.067 30.6874 134.226 31.5429 133.191 31.5429H125.54V27.7657V27.7663Z" fill="#0E1429"/>
</g>
<defs>
<clipPath id="clip0_204_1564">
<rect width="156" height="12" fill="white" transform="translate(6 26)"/>
</clipPath>
</defs>
</svg>
