<svg width="168" height="64" viewBox="0 0 168 64" fill="none" xmlns="http://www.w3.org/2000/svg">
<g clip-path="url(#clip0_204_1544)">
<path d="M25.9972 25.6228C26.6271 25.6228 27.278 25.6228 27.9078 25.6228C27.9078 26.0042 27.9078 26.2584 27.9078 26.5338C25.5982 26.5338 23.3096 26.5338 21 26.5338C21 26.2796 21 25.8983 21 25.6228C21.6299 25.6228 22.2808 25.6228 22.9107 25.6228C22.9107 25.3686 22.9107 25.2415 22.9107 25.1144C22.9107 21.2372 22.9107 17.5084 22.9107 13.6313C22.9107 13.25 22.7847 13.1228 22.4068 13.1228C21.9028 13.1228 21.5039 13.1228 21 13.1228C21 12.7415 21 12.4872 21 12.0847C21.126 12.0847 21.252 12.0847 21.3779 12.0847C23.6876 12.0847 25.9762 12.0847 28.4118 12.0847C29.3146 12.0847 30.1965 12.2118 30.9733 12.4661C32.6321 13.1016 33.6609 14.6483 33.5349 16.4703C33.4089 18.2711 32.2541 19.5635 30.4694 19.9449C29.1886 20.1991 27.9078 20.1991 26.774 20.1991C26.1441 20.1991 25.8712 20.3262 25.8712 20.8347C25.8712 22.2542 25.8712 23.5466 25.8712 24.9661C25.9972 25.1144 25.9972 25.3686 25.9972 25.6228ZM25.8712 12.9957C25.8712 15.1779 25.8712 17.2542 25.8712 19.1822C26.774 19.1822 27.6559 19.3093 28.5587 19.1822C29.7135 19.055 30.0915 18.5466 30.2175 17.3813C30.2175 16.4703 30.2175 15.7076 30.2175 14.7966C30.0915 13.8855 29.5876 13.3771 28.6847 13.25C27.7819 13.1228 26.9 13.1228 25.8712 12.9957ZM49.1353 38.2499C49.3873 37.9957 49.7652 37.6144 50.2901 37.2118C50.4161 37.0847 50.6681 36.9576 50.794 37.0847C50.92 37.0847 51.046 37.4661 51.046 37.5932C51.046 39.1398 51.046 40.6864 51.046 42.233C51.046 42.4872 51.046 42.7415 50.5421 42.7415C50.1641 42.7415 49.9122 42.7415 49.7652 42.233C49.6392 41.5974 49.5133 40.8135 49.1353 40.1779C48.5054 38.7584 47.4766 37.8474 45.8179 37.9957C44.1591 37.9957 42.7524 38.6313 41.8495 40.3262C41.5976 40.7076 41.4716 41.2372 41.3456 41.7457C41.0937 43.8008 40.9677 45.8771 41.4716 47.9322C41.9755 50.1144 43.9072 51.4067 46.1958 51.1525C48.1065 50.8983 49.6392 49.3516 49.7652 47.1483C49.7652 46.7669 50.0172 46.6398 50.3951 46.6398C50.773 46.6398 50.773 46.894 50.773 47.2754C50.6471 49.4576 48.9883 51.4067 46.8047 52.0423C44.4951 52.5508 40.9257 51.9152 39.141 48.9491C37.9862 47.0211 37.7342 44.9449 38.2381 42.7627C39.141 38.1228 43.7392 36.5762 46.6787 37.3389C47.6026 37.466 48.3584 37.8686 49.1353 38.2499ZM99.086 12.4661C99.086 12.7203 99.086 12.9745 99.086 13.3771C98.5821 13.3771 98.1831 13.3771 97.6792 13.3771C97.3013 13.3771 97.1753 13.5042 97.1753 13.8855C97.1753 15.305 97.1753 16.8516 97.1753 18.2711C97.1753 18.5254 97.1753 18.7796 97.5532 18.7796C99.086 18.7796 100.619 18.7796 102.151 18.7796C102.151 16.9788 102.151 15.305 102.151 13.3559C101.522 13.3559 100.871 13.3559 100.241 13.3559C100.241 12.9745 100.241 12.7203 100.241 12.4449C102.403 12.4449 104.713 12.4449 106.876 12.4449C106.876 12.6991 106.876 12.9533 106.876 13.3559C106.372 13.3559 105.973 13.3559 105.469 13.3559C105.091 13.3559 104.965 13.483 104.965 13.8644C104.965 17.5932 104.965 21.4703 104.965 25.2203C104.965 25.6016 105.091 25.7288 105.469 25.6016C105.847 25.6016 106.246 25.6016 106.498 25.6016C106.876 25.6016 106.876 25.8559 106.876 26.1101C106.876 26.4915 106.75 26.4915 106.498 26.4915C104.461 26.4915 102.403 26.4915 100.367 26.4915H100.241C99.9888 25.5805 100.115 25.5805 100.871 25.5805C101.123 25.5805 101.501 25.5805 101.774 25.5805H101.9C101.9 25.4533 101.9 25.3262 101.9 25.1991C101.9 23.5254 101.9 21.9788 101.9 20.305C101.9 19.9237 101.774 19.6694 101.27 19.7966C99.9888 19.7966 98.7081 19.7966 97.3013 19.7966C96.9233 19.7966 96.7974 19.9237 96.7974 20.305C96.7974 21.9788 96.7974 23.5254 96.7974 25.1991C96.7974 25.5805 96.9233 25.7076 97.3013 25.7076C97.5532 25.7076 97.8052 25.7076 97.9312 25.7076C98.7081 25.7076 98.7081 25.7076 98.7081 26.6186C96.5454 26.6186 94.2358 26.6186 92.0732 26.6186C92.0732 26.3644 92.0732 26.1101 92.0732 25.7076C92.4511 25.7076 92.976 25.7076 93.4799 25.7076C93.8579 25.7076 93.9838 25.5805 93.9838 25.1991C93.9838 21.4703 93.9838 17.7203 93.9838 13.8432C93.9838 13.4618 93.8579 13.3347 93.4799 13.3347C93.102 13.3347 92.5771 13.3347 92.0732 13.3347C92.0732 13.0805 92.0732 12.8262 92.0732 12.4237C94.6137 12.4661 96.7764 12.4661 99.086 12.4661ZM36.0965 19.4364C36.2225 17.1059 36.7264 15.1779 38.5321 13.5042C41.2196 11.0466 47.3506 11.322 48.8834 16.5974C49.5133 18.7796 49.5133 20.983 48.5054 23.0381C47.3506 25.6228 44.6631 27.0423 41.7235 26.6398C38.91 26.2584 36.8734 24.3093 36.3484 21.4915C36.2225 20.8559 36.0965 20.1991 36.0965 19.4364ZM39.288 19.3093C39.288 20.0932 39.288 20.8559 39.4139 21.6398C39.5399 23.0593 39.9178 24.2245 40.9467 25.2415C41.9755 26.2796 43.6342 26.2796 44.5161 25.2415C45.02 24.6059 45.5449 23.822 45.7969 23.0593C46.3008 21.2584 46.3008 19.4576 46.0488 17.6355C45.9228 16.7245 45.7969 15.8347 45.4189 15.0508C44.915 13.8855 44.0122 13.1228 42.6054 13.1228C41.3246 13.1228 40.4428 13.9067 39.9178 15.0508C39.162 16.2161 39.288 17.7627 39.288 19.3093ZM132.302 13.3771C132.302 12.9957 132.302 12.8686 132.302 12.4661C132.554 12.4661 132.806 12.4661 133.205 12.4661C134.234 12.4661 135.368 12.4661 136.397 12.4661C136.901 12.4661 137.3 12.5932 137.552 13.1016C139.588 15.9406 141.646 18.7796 143.683 21.6186C143.683 21.4915 143.683 21.6186 143.935 21.7457C143.935 21.4915 144.06 21.3644 144.06 21.2372C144.06 18.9067 144.06 16.4703 144.06 14.1398C144.06 13.6313 143.935 13.3559 143.431 13.3559C143.053 13.3559 142.675 13.3559 142.15 13.2288C142.15 12.9745 142.15 12.7203 142.15 12.3177C143.809 12.3177 145.341 12.3177 147 12.3177C147 12.572 147 12.8262 147 13.2288C146.496 13.2288 146.244 13.3559 145.845 13.3559C145.341 13.3559 145.068 13.6101 145.068 14.2669C145.068 18.144 145.068 22 145.068 25.8771C145.068 26.1313 144.942 26.5127 144.69 26.5127C144.438 26.5127 144.186 26.3855 143.914 26.2584C143.788 26.2584 143.788 26.1313 143.788 26.0042C141.478 22.7838 139.189 19.5635 136.754 16.3432C136.376 15.7076 135.851 15.1779 135.347 14.4152C135.347 14.6694 135.347 14.9237 135.347 15.0508C135.347 18.2711 135.347 21.4915 135.347 24.7118C135.347 25.3474 135.473 25.6228 136.103 25.6228C136.229 25.6228 136.355 25.6228 136.481 25.6228C137.237 25.6228 137.237 25.6228 137.237 26.5338C135.578 26.5338 134.045 26.5338 132.386 26.5338C132.134 25.7499 132.134 25.6228 133.016 25.6228C134.171 25.4957 134.171 25.4957 134.171 24.3305C134.171 20.8559 134.171 17.3601 134.171 14.0127C134.171 13.5042 134.045 13.2288 133.541 13.3771C133.079 13.3771 132.68 13.3771 132.302 13.3771ZM73.7852 50.8771C74.4151 50.8771 74.814 50.8771 75.318 50.8771C75.6959 50.8771 75.6959 51.1313 75.6959 51.3855C75.6959 51.6398 75.6959 51.894 75.318 51.894C73.2813 51.894 71.3496 51.894 69.313 51.894C68.935 51.894 68.935 51.7669 68.935 51.3855C68.935 51.1313 68.935 50.8771 69.313 50.8771C69.8169 50.8771 70.2158 50.8771 70.8457 50.8771C70.8457 50.6228 70.8457 50.3686 70.8457 50.2415C70.8457 46.6398 70.8457 43.0169 70.8457 39.4152C70.8457 38.9067 70.7197 38.6313 70.2158 38.6313C69.9638 38.6313 69.7119 38.6313 69.4389 38.6313C69.061 38.6313 68.935 38.5042 68.935 38.1228C68.935 37.7415 69.061 37.6144 69.4389 37.6144C71.8745 37.6144 74.2891 37.6144 76.7247 37.6144C78.2575 37.6144 79.7902 38.1228 80.5671 39.5423C81.9738 41.8728 80.6931 44.6906 78.0055 45.2203C76.8507 45.4745 75.5699 45.4745 74.4361 45.4745C73.9322 45.4745 73.8062 45.6016 73.8062 46.1101C73.7852 47.7838 73.7852 49.2033 73.7852 50.8771ZM73.6592 41.5974C73.6592 42.5084 73.6592 43.2711 73.6592 44.1821C73.6592 44.4364 73.6592 44.6906 74.0372 44.6906C74.814 44.6906 75.5699 44.6906 76.3468 44.5635C77.3756 44.4364 77.8795 43.9279 77.8795 42.8898C77.8795 41.9788 77.8795 41.0889 77.8795 40.1779C77.7535 39.1398 77.3756 38.6313 76.3468 38.5042C75.5699 38.3771 74.94 38.5042 74.1841 38.3771C73.8062 38.3771 73.6802 38.5042 73.6802 38.8855C73.6592 39.9237 73.6592 40.8347 73.6592 41.5974ZM96.1465 38.7584C95.3696 38.8855 94.4878 38.8855 93.8369 39.1398C93.207 39.2669 92.808 39.7754 92.6821 40.4321C92.5561 40.9406 92.4301 41.5974 92.4301 42.1059C92.3041 42.8898 92.3041 42.8898 91.4013 42.7415C91.4013 42.3601 91.4013 42.1059 91.4013 41.7033C91.5272 40.5381 91.6532 39.3728 91.6532 38.2288C91.6532 37.9745 91.6532 37.7203 92.0312 37.7203C95.8735 37.7203 99.5689 37.7203 103.411 37.7203C103.411 37.7203 103.537 37.7203 103.663 37.8474C103.789 39.394 103.915 41.0677 104.041 42.6144C103.138 42.8686 103.138 42.8686 103.012 41.9788C102.886 41.5974 102.76 41.1949 102.76 40.6864C102.508 39.5211 101.732 38.8855 100.598 38.8855C100.094 38.8855 99.6949 38.8855 99.191 38.8855C99.191 42.8898 99.191 46.8728 99.191 50.8771C100.094 50.8771 100.976 50.8771 101.879 50.8771C101.879 51.2584 101.879 51.5127 101.879 51.7881C99.065 51.7881 96.3774 51.7881 93.5639 51.7881C93.5639 51.5338 93.5639 51.2796 93.5639 50.8771C94.4668 50.8771 95.3486 50.8771 96.2515 50.8771C96.1465 46.894 96.1465 42.8898 96.1465 38.7584ZM122.476 26.5338C120.313 26.5338 118.256 26.5338 116.219 26.5338C115.967 25.6228 116.093 25.6228 116.849 25.6228C117.101 25.6228 117.353 25.6228 117.752 25.6228C117.374 24.7118 117.122 23.822 116.849 23.0381C116.849 22.911 116.597 22.911 116.471 22.911C115.19 22.911 113.91 22.911 112.629 22.911C112.503 22.911 112.251 23.0381 112.251 23.1652C111.999 23.9491 111.747 24.7118 111.474 25.4957C111.852 25.4957 112.104 25.6228 112.377 25.6228C113.154 25.6228 113.154 25.8771 113.007 26.5338C111.474 26.5338 110.067 26.5338 108.534 26.5338C108.408 25.6228 108.408 25.6228 109.164 25.6228C109.941 25.6228 110.319 25.3686 110.571 24.5847C111.852 20.7076 113.259 16.8516 114.665 12.8474C114.791 12.4661 114.917 12.0635 115.442 12.0635C115.946 12.0635 116.219 12.3177 116.345 12.8474C117.374 15.9406 118.508 19.0338 119.537 22.1271C119.915 23.1652 120.313 24.1822 120.565 25.2203C120.691 25.6016 120.943 25.7288 121.342 25.7288C121.468 25.7288 121.594 25.7288 121.72 25.7288C122.602 25.6228 122.602 25.6228 122.476 26.5338ZM116.597 21.7457C115.967 19.9449 115.316 18.2711 114.812 16.4491H114.686C114.057 18.1228 113.532 19.9237 112.902 21.5974C114.035 21.7457 115.19 21.7457 116.597 21.7457ZM61.0193 50.8771C61.6492 50.8771 62.1741 50.8771 62.6781 50.8771C62.3001 49.966 62.0482 49.0762 61.7752 48.2923C61.7752 48.1652 61.5232 48.0381 61.3973 48.0381C60.1165 48.0381 58.8357 48.0381 57.5549 48.0381C57.4289 48.0381 57.177 48.1652 57.051 48.2923C56.799 49.0762 56.5471 49.7118 56.2741 50.6228C56.778 50.7499 57.303 50.7499 57.8069 50.8771C57.8069 51.1313 57.8069 51.3855 57.8069 51.7881C56.2741 51.7881 54.8674 51.7881 53.3346 51.7881C53.0827 50.8771 53.0827 50.8771 53.9645 50.8771C54.9933 50.8771 54.9933 50.8771 55.3713 49.8389C56.778 45.9618 58.0588 42.1059 59.4656 38.1016C59.5916 37.7203 59.7175 37.3177 60.3684 37.3177C60.9983 37.3177 61.1453 37.6991 61.2713 38.1016C62.6781 42.1059 64.0848 46.216 65.4916 50.2203C65.6176 50.7288 65.8695 50.8559 66.3944 50.8559C66.6464 50.8559 66.7724 50.8559 67.0243 50.8559C67.4023 50.8559 67.4023 51.1101 67.4023 51.3644C67.4023 51.6186 67.2763 51.8728 67.0243 51.8728C65.2396 51.8728 63.3289 51.8728 61.5233 51.8728C60.7464 51.7881 61.1453 51.2796 61.0193 50.8771ZM57.5549 47.0211C58.8357 47.0211 60.1165 47.0211 61.3973 47.0211C60.7674 45.2203 60.1165 43.5466 59.6126 41.7245H59.4866C58.8357 43.5466 58.2058 45.2203 57.5549 47.0211ZM111.474 51.7881C111.474 51.5338 111.474 51.2796 111.474 50.8771C111.978 50.8771 112.503 50.8771 113.133 50.8771C112.755 49.966 112.503 49.2033 112.23 48.2923C112.23 48.1652 111.978 48.0381 111.726 48.0381C110.445 48.0381 109.29 48.0381 108.031 48.0381C107.905 48.0381 107.653 48.1652 107.527 48.4194C107.275 49.055 107.023 49.8389 106.75 50.7499C107.254 50.8771 107.779 50.8771 108.282 51.0042C108.282 51.2584 108.282 51.5127 108.282 51.9152C106.75 51.9152 105.217 51.9152 103.81 51.9152C103.558 51.1313 103.558 51.0042 104.44 51.0042C105.469 51.0042 105.469 51.0042 105.847 49.966C107.254 46.0889 108.534 42.233 109.941 38.3559C110.067 37.9745 110.193 37.572 110.844 37.572C111.474 37.572 111.621 37.9533 111.747 38.3559C113.154 42.3601 114.56 46.4703 115.967 50.4745C116.093 50.8559 116.345 51.1101 116.744 50.983C116.87 50.983 117.122 50.983 117.248 50.983C117.626 50.983 117.878 50.983 117.878 51.4915C117.878 51.9999 117.626 51.9999 117.248 51.9999C115.463 51.9999 113.679 51.9999 111.999 51.9999C111.873 51.7881 111.747 51.7881 111.474 51.7881ZM110.088 41.8516H109.962C109.332 43.5254 108.807 45.3262 108.177 46.9999C109.458 46.9999 110.739 46.9999 112.02 46.9999C111.222 45.2203 110.592 43.5466 110.088 41.8516ZM69.9428 19.4364C71.0977 17.3813 72.1055 15.5593 73.2603 13.5042C72.7564 13.3771 72.3574 13.3771 71.8535 13.25C71.8535 12.9957 71.8535 12.7415 71.8535 12.3389C73.3863 12.3389 74.793 12.3389 76.3258 12.3389C76.3258 12.5932 76.3258 12.8474 76.3258 13.1228L76.1998 13.25C74.919 13.1228 74.2891 13.7584 73.7642 14.7966C72.8614 16.7245 71.7275 18.5254 70.6987 20.3474C70.5727 20.6016 70.4468 20.8559 70.4468 21.1313C70.4468 22.4237 70.4468 23.7161 70.4468 25.0084C70.4468 25.3898 70.5727 25.5169 70.9507 25.5169C71.2026 25.5169 71.4546 25.5169 71.5806 25.5169C72.3574 25.5169 72.3574 25.5169 72.2105 26.4279C70.0478 26.4279 67.8642 26.4279 65.7016 26.4279C65.7016 26.1737 65.7016 25.9194 65.7016 25.5169C66.2055 25.5169 66.7304 25.5169 67.1083 25.5169C67.3603 25.5169 67.6122 25.3898 67.6122 25.1355C67.6122 23.8432 67.6122 22.4237 67.6122 21.1313C67.6122 20.8771 67.4863 20.7499 67.3603 20.4957C66.0795 18.1652 64.7987 15.983 63.5179 13.8008C63.266 13.5466 62.888 13.4194 62.6151 13.4194C62.2371 13.2923 61.8382 13.4194 61.4603 13.4194C61.4603 13.1652 61.4603 12.911 61.4603 12.5084C63.6229 12.5084 65.6806 12.5084 67.8432 12.5084C67.8432 12.7627 67.8432 13.0169 67.8432 13.4194C67.3393 13.4194 66.9403 13.4194 66.3105 13.5466C67.6542 15.4322 68.6831 17.3813 69.9428 19.4364ZM90.3934 14.9237C90.3934 15.7076 90.3934 16.4703 90.3934 17.1059C90.3934 17.4872 90.3934 17.7415 89.8895 17.7415C89.5116 17.7415 89.2596 17.6144 89.2596 17.233C89.1337 15.9406 88.6297 14.6483 87.4749 13.8855C85.5642 12.3389 82.3728 13.3771 81.4699 15.8135C81.218 16.8516 81.092 17.9957 81.092 19.0338C81.092 20.3262 81.218 21.7457 81.5959 23.0381C82.0998 24.9661 84.0315 26.0042 86.0682 25.8771C87.9788 25.6228 89.3856 24.0762 89.5116 22.1483C89.5116 21.7669 89.6376 21.5127 90.1415 21.5127C90.6454 21.5127 90.5194 21.894 90.5194 22.1483C90.3934 24.2033 88.8607 26.0254 86.6771 26.661C83.7375 27.4449 80.2941 26.0254 78.7614 23.3135C77.2286 20.4745 77.2286 15.1991 81.4489 12.9957C83.6116 11.8305 86.0472 11.5762 88.2308 13.1228C88.3568 13.25 88.6087 13.1228 88.7347 13.1228C88.9867 12.8686 89.2386 12.6144 89.6376 12.3389C89.7635 12.3389 90.0155 12.0847 90.1415 12.2118C90.2675 12.2118 90.3934 12.5932 90.3934 12.7203C90.3934 13.5042 90.3934 14.1398 90.3934 14.9237ZM130.14 46.2372C129.888 48.0381 129.762 49.7118 129.51 51.5338C129.51 51.661 129.132 51.7881 128.88 51.7881C126.318 51.7881 123.778 51.7881 121.216 51.7881C120.838 51.7881 120.439 51.7881 120.061 51.7881C119.285 51.7881 119.285 51.7881 119.432 50.8771C120.061 50.8771 120.586 50.8771 121.216 50.8771C121.216 50.6228 121.216 50.3686 121.216 50.2415C121.216 46.6398 121.216 42.8898 121.216 39.2881C121.216 38.7796 121.09 38.5042 120.586 38.6525C120.46 38.6525 120.208 38.6525 120.082 38.6525C119.18 38.6525 119.18 38.6525 119.453 37.7415C121.762 37.7415 124.177 37.7415 126.486 37.7415C126.738 38.6525 126.612 38.6525 125.857 38.6525C125.353 38.6525 124.828 38.6525 124.198 38.6525C124.198 42.7838 124.198 46.7669 124.198 50.7711C126.507 51.2796 128.292 50.2627 128.796 48.0593C128.922 47.6779 128.922 47.2754 129.048 46.894C129.237 46.1101 129.237 45.983 130.14 46.2372ZM61.9012 20.983C61.6492 22.7838 61.5233 24.7118 61.2713 26.5338C57.8279 26.5338 54.4894 26.5338 51.172 26.5338C51.172 26.2796 51.172 26.0254 51.172 25.6228C51.6759 25.6228 52.0748 25.6228 52.5787 25.6228C52.9567 25.6228 53.0827 25.4957 53.0827 25.1144C53.0827 21.2372 53.0827 17.3813 53.0827 13.6313C53.0827 13.5042 53.0827 13.5042 53.0827 13.3771C52.4528 13.3771 51.9278 13.3771 51.298 13.3771C51.298 12.9957 51.298 12.7415 51.298 12.4661C53.7335 12.4661 56.1481 12.4661 58.5837 12.4661C58.5837 12.7203 58.5837 12.9745 58.5837 13.3771C57.8069 13.3771 57.051 13.3771 56.1481 13.3771C56.1481 13.6313 56.1481 13.8855 56.1481 14.0127C56.1481 17.6144 56.1481 21.3644 56.1481 24.9661C56.1481 25.4745 56.2741 25.6016 56.778 25.6016C59.3396 25.6016 60.4734 24.5635 60.9983 22C60.9983 21.8728 61.1243 21.7457 61.1243 21.6186C60.8724 20.8559 61.2713 20.8559 61.9012 20.983ZM82.8557 38.6313C82.8557 38.2499 82.8557 37.9957 82.8557 37.7203C85.1653 37.7203 87.4539 37.7203 89.7635 37.7203C89.7635 37.9745 89.7635 38.2288 89.7635 38.6313C89.2596 38.6313 88.7347 38.6313 88.2308 38.6313C87.9788 38.6313 87.7269 38.7584 87.7269 39.0127C87.7269 42.8898 87.7269 46.7457 87.7269 50.6228C87.7269 50.7499 87.7269 50.7499 87.8529 50.8771C88.4828 50.8771 89.1337 50.8771 89.7635 50.8771C89.7635 51.2584 89.7635 51.5127 89.7635 51.7881C87.4539 51.7881 85.1653 51.7881 82.8557 51.7881C82.8557 51.5338 82.8557 51.2796 82.8557 50.8771C83.3596 50.8771 83.8845 50.8771 84.3884 50.8771C84.7664 50.8771 84.7664 50.7499 84.7664 50.4957C84.7664 46.7669 84.7664 42.8898 84.7664 39.1398C84.7664 38.7584 84.6404 38.6313 84.2625 38.6313C83.8845 38.6313 83.3806 38.6313 82.8557 38.6313ZM124.009 13.3771C124.009 12.9957 124.009 12.7415 124.009 12.4661C124.261 12.4661 124.513 12.4661 124.639 12.4661C126.423 12.4661 128.334 12.4661 130.14 12.4661C130.896 12.3389 130.896 12.3389 130.896 13.3771C130.644 13.3771 130.266 13.3771 129.867 13.3771C129.615 13.3771 129.237 13.3771 128.838 13.3771C128.838 13.6313 128.838 13.8855 128.838 14.0127C128.838 17.6144 128.838 21.2372 128.838 24.9661C128.838 25.6016 128.964 25.7499 129.615 25.6016C129.741 25.6016 129.993 25.6016 130.119 25.6016C130.875 25.6016 130.875 25.6016 130.875 26.5127C128.565 26.5127 126.276 26.5127 123.967 26.5127C123.841 25.6016 123.841 25.6016 124.744 25.6016C126.025 25.6016 126.025 25.6016 126.025 24.3093C126.025 20.8347 126.025 17.3389 126.025 13.9915C126.025 13.483 125.899 13.2076 125.395 13.3559C124.891 13.3771 124.387 13.3771 124.009 13.3771Z" fill="black"/>
</g>
<defs>
<clipPath id="clip0_204_1544">
<rect width="126" height="40" fill="white" transform="translate(21 12)"/>
</clipPath>
</defs>
</svg>
