<svg width="168" height="64" viewBox="0 0 168 64" fill="none" xmlns="http://www.w3.org/2000/svg">
<path d="M98.0828 20.5222L98.0376 20.0475C97.9472 17.6513 96.9412 17.1314 92.601 17.1314C86.9384 17.1314 85.7064 17.6513 85.7064 20.1153C85.7064 22.1385 86.3959 22.8958 88.4982 23.0992C88.9955 23.1331 89.5493 23.2009 90.1823 23.2009C90.7813 23.2348 91.8776 23.3026 93.5165 23.3705C99.5408 23.6078 101.327 23.9582 102.751 25.1902C103.892 26.1848 104.344 27.349 104.344 29.5417C104.344 32.6612 103.836 34.1306 102.468 35.0913C100.547 36.425 98.354 36.7754 92.2845 36.7754C86.2941 36.7754 84.3275 36.5719 82.553 35.679C80.722 34.7522 79.7612 33.0455 79.7612 30.5024C79.7612 30.299 79.8064 29.9147 79.8064 29.4061H85.3786V29.9147C85.3786 32.3787 86.2942 33.2377 89.0746 33.2716H91.7759L92.601 33.3055C97.7211 33.3055 98.5914 32.7856 98.5914 29.9147C98.5914 27.6542 97.8567 27.1342 94.2964 26.9986L91.0978 26.8291C84.8813 26.5578 83.7398 26.3883 82.1913 25.3936C80.5863 24.399 79.9082 22.8958 79.9082 20.4657C79.9082 17.6174 80.6428 15.9446 82.2817 15.0856C84.3388 14.0232 86.4863 13.718 92.1489 13.718C97.2238 13.718 99.3713 13.9893 101.01 14.8483C102.785 15.7751 103.61 17.3123 103.61 19.7084C103.61 19.9119 103.61 20.1944 103.61 20.5335H98.0828V20.5222Z" fill="black"/>
<path d="M119.151 36.6623H113.296V13.8423H119.151V36.6623Z" fill="black"/>
<path d="M154.833 24.5346L154.879 25.1902L154.924 28.7844V29.0896C154.924 32.8985 154.234 34.4018 151.996 35.566C150.075 36.5945 147.927 36.8319 141.813 36.8319C135.596 36.8319 133.494 36.5267 131.437 35.2269C129.109 33.7236 128.283 31.8361 128.283 27.7219V27.2472C128.329 26.0831 128.329 25.2241 128.329 24.7494C128.374 20.6691 128.464 19.9909 128.962 18.5103C129.459 17.1088 130.465 15.9446 131.742 15.1873C134.025 13.9214 135.721 13.6841 141.756 13.6841C148.651 13.6841 149.984 13.8197 151.94 14.7804C153.127 15.3682 153.997 16.3289 154.359 17.4139C154.72 18.4764 154.766 18.7477 154.811 20.7369H149.012L148.967 20.2848C148.741 17.6852 147.916 17.3348 141.7 17.3348C138.365 17.3348 136.76 17.5383 135.845 18.126C134.658 18.8833 134.296 19.8779 134.296 22.681L134.251 24.9754L134.296 27.9254C134.342 30.6267 134.613 31.5874 135.709 32.2769C136.715 32.9212 138.354 33.1359 142.016 33.1359C148.187 33.1359 149.103 32.5821 149.103 28.5809C149.103 28.4114 149.103 28.1741 149.103 27.7898H141.383V24.5346H154.833Z" fill="black"/>
<path fill-rule="evenodd" clip-rule="evenodd" d="M12.7932 27.7559C14.6808 28.8635 15.6867 30.3668 19.6313 30.3668C23.5759 30.3668 26.0512 27.7559 30.7305 27.7559C35.455 27.7559 38.0433 30.3668 42.7791 30.3668C47.4584 30.3668 49.3007 27.7559 53.8218 27.7559C58.3993 27.7559 60.8633 30.3668 64.9209 30.3668C68.9786 30.3668 70.3349 28.7279 72.6519 27.7559V33.8819C70.3349 34.8652 68.9673 36.4363 64.9209 36.4363C60.8746 36.4363 58.3993 33.8141 53.8218 33.8141C49.3007 33.8141 47.4584 36.4363 42.7791 36.4363C38.0433 36.4363 35.4663 33.8141 30.7305 33.8141C26.0512 33.8141 23.5759 36.4363 19.6313 36.4363C15.6867 36.4363 14.6921 34.9895 12.7932 33.8819V27.7559Z" fill="black"/>
<path fill-rule="evenodd" clip-rule="evenodd" d="M12.7932 23.0652V26.4221C14.6808 27.5297 15.6867 28.9426 19.6313 28.9426C23.5759 28.9426 26.0512 26.3543 30.7305 26.3543C35.455 26.3543 38.0433 28.9426 42.7791 28.9426C47.4584 28.9426 49.3007 26.3543 53.8218 26.3543C58.3993 26.3543 60.8633 28.9426 64.9209 28.9426C68.9786 28.9426 70.3349 27.4054 72.6519 26.4221V23.0652C70.3349 24.0485 68.9673 25.6535 64.9209 25.6535C60.8746 25.6535 58.3993 23.0652 53.8218 23.0652C49.3007 23.0652 47.4584 25.6535 42.7791 25.6535C38.0433 25.6535 35.4663 23.0652 30.7305 23.0652C26.0512 23.0652 23.5759 25.6535 19.6313 25.6535C15.6867 25.6535 14.6921 24.1728 12.7932 23.0652Z" fill="black"/>
<path fill-rule="evenodd" clip-rule="evenodd" d="M12.7932 19.6406V21.6073C14.6808 22.681 15.6867 24.1278 19.6313 24.1278C23.5759 24.1278 26.0512 21.5395 30.7305 21.5395C35.455 21.5395 38.0433 24.1278 42.7791 24.1278C47.4584 24.1278 49.3007 21.5395 53.8218 21.5395C58.3993 21.5395 60.8633 24.1278 64.9209 24.1278C68.9786 24.1278 70.3349 22.5906 72.6519 21.6073V19.6406C70.3349 20.624 68.9673 22.2289 64.9209 22.2289C60.8746 22.2289 58.3993 19.6406 53.8218 19.6406C49.3007 19.6406 47.4584 22.2289 42.7791 22.2289C38.0433 22.2289 35.4663 19.6406 30.7305 19.6406C26.0512 19.6406 23.5759 22.2289 19.6313 22.2289C15.6867 22.2289 14.6921 20.7483 12.7932 19.6406Z" fill="black"/>
<path d="M73.8387 34.967C74.3021 34.967 74.709 35.1253 75.0255 35.4417C75.3419 35.7356 75.5002 36.1199 75.5002 36.5607C75.5002 36.9676 75.3193 37.3519 75.0142 37.6345C74.6864 37.9283 74.2682 38.0979 73.8387 38.0979C73.3979 38.0979 72.9797 37.9283 72.6632 37.6232C72.3468 37.3293 72.1885 36.945 72.1885 36.5268C72.1885 36.1086 72.3694 35.713 72.6971 35.4078C72.991 35.114 73.3866 34.967 73.8387 34.967ZM73.8274 34.6619C73.1153 34.6619 72.4937 35.0009 72.132 35.5661C71.9399 35.8826 71.8381 36.199 71.8381 36.5381C71.8381 37.0241 72.0303 37.4875 72.4033 37.8379C72.7876 38.1996 73.2849 38.403 73.8161 38.403C74.336 38.403 74.8333 38.2109 75.2289 37.8605C75.6019 37.5214 75.8167 37.058 75.8167 36.5381C75.8167 36.0408 75.6245 35.5774 75.2515 35.227C74.8785 34.854 74.3812 34.6619 73.8274 34.6619ZM73.0136 35.4531V37.5327H73.5448V36.685H73.8048L74.2343 37.5327H74.8333L74.336 36.6059C74.6412 36.5381 74.822 36.3234 74.822 36.0521C74.822 35.6565 74.5056 35.4531 73.8726 35.4531H73.0136ZM73.5448 35.7808H73.7822C74.11 35.7808 74.2682 35.8712 74.2682 36.086C74.2682 36.2894 74.1213 36.3799 73.8161 36.3799H73.5561V35.7808H73.5448Z" fill="black"/>
<path d="M13.2341 47.2641H14.2627C14.2853 47.8066 14.4661 48.2135 14.8278 48.4735C15.1895 48.7334 15.7207 48.8691 16.4328 48.8691C17.0431 48.8691 17.5178 48.7673 17.8569 48.5639C18.196 48.3604 18.3542 48.0666 18.3542 47.6936C18.3542 47.4223 18.2638 47.2076 18.083 47.0606C17.9021 46.9137 17.5969 46.7894 17.1674 46.7216L15.4494 46.4164C14.76 46.2921 14.2514 46.0886 13.9349 45.7948C13.6184 45.5009 13.4602 45.094 13.4602 44.5854C13.4602 43.9185 13.7088 43.3986 14.2175 43.0369C14.7261 42.6752 15.4381 42.4944 16.3763 42.4944C17.2579 42.4944 17.936 42.6865 18.4107 43.0595C18.8854 43.4438 19.1228 43.975 19.1341 44.6871H18.1508C18.1169 44.2463 17.9473 43.9185 17.6535 43.7151C17.3483 43.5003 16.8962 43.3986 16.2971 43.3986C15.7094 43.3986 15.2573 43.489 14.9521 43.6812C14.647 43.8733 14.4887 44.1446 14.4887 44.495C14.4887 44.7549 14.5791 44.9584 14.7487 45.094C14.9295 45.2296 15.246 45.354 15.7094 45.4444L17.2353 45.7495C18.0377 45.9078 18.5916 46.1225 18.9081 46.4051C19.2245 46.6877 19.3828 47.0946 19.3828 47.6258C19.3828 48.3152 19.1228 48.8465 18.6029 49.2194C18.083 49.6037 17.3483 49.7846 16.3876 49.7846C15.359 49.7846 14.5791 49.5698 14.0479 49.1516C13.5167 48.7334 13.2454 48.1005 13.2341 47.2641Z" fill="black"/>
<path d="M32.6069 42.6865V47.0267C32.6069 47.9309 32.347 48.6091 31.827 49.0838C31.3071 49.5585 30.5498 49.7846 29.5439 49.7846C28.538 49.7846 27.7807 49.5472 27.2721 49.0838C26.7521 48.6091 26.4922 47.9309 26.4922 47.0267V42.6865H27.4642V46.6085C27.4642 47.3658 27.6338 47.9309 27.9728 48.2926C28.3119 48.6543 28.8318 48.8352 29.5439 48.8352C30.256 48.8352 30.7872 48.6543 31.1263 48.2926C31.4653 47.9309 31.6349 47.3658 31.6349 46.6085V42.6865H32.6069Z" fill="black"/>
<path d="M39.7839 47.2641H40.8125C40.8351 47.8066 41.0159 48.2135 41.3776 48.4735C41.7393 48.7334 42.2705 48.8691 42.9826 48.8691C43.5929 48.8691 44.0676 48.7673 44.4067 48.5639C44.7458 48.3604 44.904 48.0666 44.904 47.6936C44.904 47.4223 44.8136 47.2076 44.6328 47.0606C44.4519 46.9137 44.1467 46.7894 43.7172 46.7216L42.0106 46.4164C41.3211 46.2921 40.8125 46.0886 40.496 45.7948C40.1795 45.5009 40.0213 45.094 40.0213 44.5854C40.0213 43.9185 40.2699 43.3986 40.7786 43.0369C41.2872 42.6752 41.9993 42.4944 42.9374 42.4944C43.819 42.4944 44.4971 42.6865 44.9718 43.0595C45.4466 43.4438 45.6839 43.975 45.6952 44.6871H44.7232C44.6893 44.2463 44.5197 43.9185 44.2259 43.7151C43.9207 43.5003 43.4686 43.3986 42.8696 43.3986C42.2818 43.3986 41.8297 43.489 41.5245 43.6812C41.2081 43.8733 41.0611 44.1446 41.0611 44.495C41.0611 44.7549 41.1516 44.9584 41.3211 45.094C41.5019 45.2296 41.8184 45.354 42.2818 45.4444L43.7964 45.7495C44.5989 45.9078 45.1527 46.1225 45.4692 46.4051C45.7856 46.6877 45.9439 47.0946 45.9439 47.6258C45.9439 48.3152 45.6839 48.8465 45.164 49.2194C44.6441 49.6037 43.8981 49.7846 42.9487 49.7846C41.9201 49.7846 41.1403 49.5698 40.609 49.1516C40.0665 48.7334 39.7952 48.1005 39.7839 47.2641Z" fill="black"/>
<path d="M58.3656 49.389C58.1169 49.5246 57.857 49.6263 57.5518 49.6829C57.2579 49.7394 56.8962 49.7733 56.4667 49.7733C55.3026 49.7733 54.387 49.4455 53.7089 48.7899C53.0307 48.1344 52.6917 47.2528 52.6917 46.1338C52.6917 45.0149 53.0307 44.1333 53.7089 43.4777C54.387 42.8222 55.3139 42.4944 56.478 42.4944C57.6422 42.4944 58.5577 42.8222 59.2359 43.4777C59.914 44.1333 60.2531 45.0262 60.2531 46.1338C60.2531 46.699 60.1514 47.2302 59.9592 47.7049C59.7671 48.1796 59.4845 48.5752 59.1115 48.8804L60.0497 49.6263L59.4958 50.3271L58.3656 49.389ZM57.5518 48.7108L56.8284 48.1231L57.3596 47.4449L58.3769 48.27C58.6594 48.044 58.8742 47.7501 59.0211 47.3884C59.1681 47.0154 59.2472 46.6085 59.2472 46.1451C59.2472 45.2861 58.9985 44.6193 58.5125 44.1446C58.0265 43.6699 57.3483 43.4212 56.478 43.4212C55.6077 43.4212 54.9296 43.6586 54.4436 44.1446C53.9575 44.6306 53.7089 45.2974 53.7089 46.1451C53.7089 47.0041 53.9575 47.6823 54.4436 48.157C54.9409 48.6317 55.6303 48.8691 56.5345 48.8691C56.7493 48.8691 56.9414 48.8578 57.111 48.8352C57.2692 48.8013 57.4161 48.7673 57.5518 48.7108Z" fill="black"/>
<path d="M73.4433 42.6865V47.0267C73.4433 47.9309 73.1834 48.6091 72.6635 49.0838C72.1435 49.5585 71.3863 49.7846 70.3803 49.7846C69.3744 49.7846 68.6171 49.5472 68.1085 49.0838C67.5886 48.6091 67.3286 47.9309 67.3286 47.0267V42.6865H68.3006V46.6085C68.3006 47.3658 68.4702 47.9309 68.8093 48.2926C69.1483 48.6543 69.6683 48.8352 70.3803 48.8352C71.0924 48.8352 71.6236 48.6543 71.9627 48.2926C72.3018 47.9422 72.4713 47.3771 72.4713 46.6198V42.6978H73.4433V42.6865Z" fill="black"/>
<path d="M80.9368 49.6037V42.6978H86.4298V43.5907H81.9088V45.6251H86.1473V46.5293H81.9088V48.6768H86.4977V49.6037H80.9368Z" fill="black"/>
<path d="M93.6184 49.6037V42.6978H94.5904V45.4895H98.8063V42.6978H99.7783V49.6037H98.8063V46.3937H94.5904V49.6037H93.6184Z" fill="black"/>
<path d="M106.402 49.6037L109.679 42.6978H110.708L113.782 49.6037H112.765L111.883 47.637H108.357L107.43 49.6037H106.402ZM108.764 46.7328H111.476L110.154 43.7828L108.764 46.7328Z" fill="black"/>
<path d="M120.473 49.6037V42.6978H121.796L126.147 48.5977V42.6978H127.097V49.6037H125.774L121.423 43.7037V49.6037H120.473Z" fill="black"/>
<path d="M134.579 49.6037V42.6978H135.902L140.253 48.5977V42.6978H141.202V49.6037H139.88L135.529 43.7037V49.6037H134.579Z" fill="black"/>
<path d="M147.826 49.6037L151.104 42.6978H152.132L155.207 49.6037H154.189L153.308 47.637H149.781L148.866 49.6037H147.826ZM150.188 46.7328H152.901L151.59 43.7828L150.188 46.7328Z" fill="black"/>
</svg>
