<svg width="168" height="64" viewBox="0 0 168 64" fill="none" xmlns="http://www.w3.org/2000/svg">
<g clip-path="url(#clip0_204_1551)">
<path fill-rule="evenodd" clip-rule="evenodd" d="M48.8423 47.1745L50.6192 48.9522C49.0327 50.603 47.2557 51.6824 44.3365 51.6824C39.7673 51.6824 36.4038 48.1903 36.4038 43.6824C36.4038 39.2379 39.7038 35.6189 44.4 35.6189C47.2557 35.6189 48.9692 36.6348 50.4923 38.0316L48.7153 40.0633C47.4461 38.9205 46.1769 38.1586 44.4 38.1586C41.4173 38.1586 39.2596 40.5713 39.2596 43.6189C39.2596 46.6665 41.4173 49.1427 44.4 49.1427C46.3038 49.2062 47.5096 48.3808 48.8423 47.1745ZM62.7403 45.5237L66.9288 51.3649H63.6923L59.8846 45.9681H58.6153V43.5554H60.4557C62.423 43.5554 63.6288 42.5395 63.6288 40.9522C63.6288 39.2379 62.423 38.3491 60.3923 38.3491H56.4577V43.5554V45.9681V51.3649H53.7288V35.9364H60.6461C64.2 35.9364 66.4211 37.8411 66.4211 40.8252C66.4211 43.4284 64.898 44.9522 62.7403 45.5237ZM77.4 45.2697L83.5557 35.9364H80.4461L76.0673 42.7935L71.7519 35.9364H68.5153L74.6711 45.3332V51.4284H77.4V45.2697ZM92.3769 35.9364C95.9942 35.9364 98.2788 37.9681 98.2788 41.1427C98.2788 44.6348 95.4865 46.476 92.0596 46.476H91.1077V43.9998H92.123C94.1538 43.9998 95.4865 42.857 95.4865 41.2062C95.4865 39.3649 94.1538 38.4125 92.123 38.4125H88.95V43.9998V46.476V51.4284H86.2211V35.9364H92.3769ZM112.875 38.4125H100.5H100.31V35.8729H112.875V38.4125ZM107.925 40.5713H105.196V51.4284H107.925V40.5713ZM123.473 35.6824C128.233 35.6824 131.533 39.3014 131.533 43.6824C131.533 48.0633 128.169 51.7459 123.41 51.7459C118.65 51.7459 115.35 48.1268 115.35 43.7459C115.35 39.3649 118.713 35.6824 123.473 35.6824ZM123.473 49.2062C126.519 49.2062 128.677 46.73 128.677 43.7459C128.677 40.7618 126.456 38.2221 123.41 38.2221C120.363 38.2221 118.206 40.6983 118.206 43.6824C118.206 46.6665 120.427 49.2062 123.473 49.2062Z" fill="#85B1B4"/>
<path fill-rule="evenodd" clip-rule="evenodd" d="M21.5539 16.5714C21.5539 15.5555 22.5058 14.7301 24.0924 14.7301C25.4885 14.7301 26.8847 15.3015 28.2808 16.3174L29.7404 14.2856C28.1539 13.0158 26.377 12.3174 24.0924 12.3174C21.0462 12.3174 18.825 14.1587 18.825 16.8253C18.825 19.6825 20.6654 20.6983 23.9654 21.4602C26.8212 22.0952 27.4558 22.7301 27.4558 23.8729C27.4558 25.0793 26.377 25.8412 24.727 25.8412C22.8231 25.8412 21.3 25.0793 19.8404 23.8094L18.1904 25.7777C20.0308 27.4285 22.3154 28.2539 24.6635 28.2539C27.9 28.2539 30.1847 26.5396 30.1847 23.619C30.1847 21.0158 28.4712 19.8729 25.2347 19.0475C22.252 18.3491 21.5539 17.7777 21.5539 16.5714ZM40.275 15.0475H45.1616V12.5079H32.5962V15.0475H37.4827V27.9999H40.2116L40.275 15.0475ZM53.8558 12.4444H56.3943L63.1847 28.0634H60.3289L58.7424 24.3174H51.4443L49.8577 28.0634H47.0654L53.8558 12.4444ZM52.4597 21.9047H57.7904L55.125 15.6825L52.4597 21.9047ZM77.0193 23.238L68.7058 12.5079H66.1674V27.9999H68.8327V17.0158L77.4 28.0634H79.6847V12.5079H77.0193V23.238ZM89.775 12.5079C94.6616 12.5079 98.025 15.8729 98.025 20.2539C98.025 24.6348 94.6616 27.9999 89.775 27.9999H84V12.5079H89.775ZM89.775 25.5237C93.0116 25.5237 95.1693 23.3015 95.1693 20.2539C95.1693 17.2063 93.075 14.984 89.775 14.984H86.7289V25.5237H89.775ZM109.702 12.4444H107.163L100.373 28.0634H103.165L104.752 24.3174H112.05L113.637 28.0634H116.492L109.702 12.4444ZM111.035 21.9047H105.704L108.369 15.6825L111.035 21.9047ZM128.423 22.1587L132.612 27.9999H129.375L125.567 22.6031H122.14V27.9999H119.412V12.5079H126.329C129.883 12.5079 132.104 14.4126 132.104 17.3967C132.104 19.9999 130.581 21.5872 128.423 22.1587ZM126.202 20.1904C128.169 20.1904 129.375 19.1745 129.375 17.5872C129.375 15.8729 128.169 14.984 126.138 14.984H122.204V20.1904H126.202ZM149.81 20.2539C149.81 15.8729 146.446 12.5079 141.56 12.5079H135.785V27.9999H141.56C146.446 28.0634 149.81 24.6348 149.81 20.2539ZM146.954 20.3174C146.954 23.365 144.86 25.5872 141.56 25.5872H138.513V15.0475H141.56C144.796 15.0475 146.954 17.2698 146.954 20.3174Z" fill="black"/>
</g>
<defs>
<clipPath id="clip0_204_1551">
<rect width="132" height="40" fill="white" transform="translate(18 12)"/>
</clipPath>
</defs>
</svg>
